<svg width="12" height="14" viewBox="0 0 12 14" fill="none" xmlns="http://www.w3.org/2000/svg">
<path d="M8.42945 10.2473C8.42945 10.004 8.39202 9.78565 8.31715 9.59225C8.24853 9.3926 8.11751 9.21167 7.92411 9.04946C7.7307 8.88102 7.45931 8.71569 7.10993 8.55348C6.76056 8.39126 6.30824 8.22282 5.75298 8.04813C5.13534 7.84848 4.54888 7.62389 3.99362 7.37433C3.4446 7.12478 2.95797 6.83467 2.53373 6.50401C2.11573 6.16711 1.78507 5.77718 1.54175 5.33422C1.30468 4.89127 1.18614 4.37656 1.18614 3.79011C1.18614 3.22237 1.31091 2.70766 1.56047 2.24599C1.81002 1.77807 2.1594 1.37879 2.6086 1.04813C3.0578 0.71123 3.5881 0.452317 4.19951 0.27139C4.81715 0.0904635 5.49407 0 6.23026 0C7.23471 0 8.11127 0.180927 8.85993 0.542781C9.6086 0.904635 10.1888 1.40062 10.6006 2.03075C11.0186 2.66087 11.2276 3.38146 11.2276 4.19251H8.43881C8.43881 3.79323 8.35459 3.44385 8.18614 3.14438C8.02393 2.83868 7.77437 2.59848 7.43747 2.4238C7.10681 2.24911 6.68881 2.16176 6.18346 2.16176C5.69683 2.16176 5.29131 2.23663 4.96689 2.38636C4.64247 2.52986 4.39915 2.72638 4.23694 2.97594C4.07473 3.21925 3.99362 3.49376 3.99362 3.79947C3.99362 4.0303 4.04977 4.2393 4.16207 4.42647C4.28061 4.61364 4.4553 4.78832 4.68614 4.95053C4.91698 5.11274 5.20084 5.2656 5.53774 5.40909C5.87464 5.55258 6.26457 5.69296 6.70753 5.83021C7.44995 6.05481 8.10191 6.30749 8.66341 6.58823C9.23115 6.86898 9.7053 7.18405 10.0859 7.53342C10.4664 7.8828 10.7534 8.27897 10.9468 8.72192C11.1402 9.16488 11.2369 9.66711 11.2369 10.2286C11.2369 10.8213 11.1215 11.3516 10.8907 11.8195C10.6598 12.2874 10.3261 12.6836 9.88935 13.008C9.45263 13.3324 8.93168 13.5789 8.32651 13.7473C7.72134 13.9158 7.04443 14 6.29576 14C5.62197 14 4.95753 13.9127 4.30245 13.738C3.64737 13.557 3.05156 13.2857 2.51501 12.9238C1.98471 12.5619 1.56047 12.1003 1.24229 11.5388C0.924106 10.9773 0.765015 10.3128 0.765015 9.54545H3.58186C3.58186 9.9697 3.64737 10.3284 3.77838 10.6217C3.9094 10.9149 4.09345 11.152 4.33052 11.3329C4.57384 11.5138 4.86083 11.6448 5.19148 11.7259C5.52838 11.807 5.89648 11.8476 6.29576 11.8476C6.78239 11.8476 7.18168 11.779 7.49362 11.6417C7.81181 11.5045 8.04576 11.3142 8.1955 11.0709C8.35147 10.8275 8.42945 10.553 8.42945 10.2473Z" fill="#5C8EE6"/>
</svg>
