<svg width="20" height="12" viewBox="0 0 20 12" fill="none" xmlns="http://www.w3.org/2000/svg">
<path d="M19.6689 10.7569C18.8705 9.32 16.8138 7.59347 15.9648 6.84216C15.7324 6.63646 15.7075 6.28057 15.919 6.05309C17.5394 4.3119 18.8354 2.31123 19.2815 1.1023C19.4783 0.568255 19.0709 0.00399859 18.4968 0.00399859H16.8294C16.2798 0.00399859 15.9581 0.201266 15.8048 0.515384C14.4582 3.27491 13.303 4.46918 12.4944 5.16717C12.0416 5.55815 11.3357 5.23426 11.3357 4.63934C11.3357 3.49306 11.3357 2.01133 11.3357 0.960569C11.3357 0.450961 10.9189 0.0386537 10.4049 0.0386537L7.35877 0.00399859C6.97534 0.00399859 6.7563 0.438076 6.98644 0.742419L7.48939 1.4644C7.67866 1.71454 7.78085 2.01888 7.78085 2.33122L7.77818 5.58258C7.77818 6.14817 7.09263 6.42453 6.68566 6.02821C5.30878 4.68733 4.11407 1.94913 3.68399 0.639787C3.55959 0.260802 3.20459 0.00488718 2.80206 0.00399859L1.1595 0C0.543259 0 0.0927424 0.58425 0.260242 1.1725C1.76108 6.44052 4.84049 11.4522 10.3284 11.9956C10.8692 12.0489 11.3357 11.6135 11.3357 11.0745V9.36577C11.3357 8.87571 11.72 8.45452 12.214 8.44207C12.2314 8.44163 12.2487 8.44163 12.266 8.44163C13.7175 8.44163 15.3432 10.5543 15.9119 11.5424C16.0754 11.8267 16.3811 12 16.7116 12H18.9211C19.5658 12 19.9795 11.3162 19.6689 10.7569Z" fill="#5C8EE6"/>
</svg>
