<svg width="16" height="16" viewBox="0 0 16 16" fill="none" xmlns="http://www.w3.org/2000/svg">
<path d="M13.5714 2.35714C12.1071 0.857143 10.1071 0 7.96429 0C3.60714 0 0.0357143 3.57143 0.0357143 7.92857C0.0357143 9.35714 0.428571 10.7143 1.10714 11.8929L0 16L4.17857 14.9286C5.35714 15.5357 6.64286 15.8929 7.96429 15.8929C12.3571 15.8929 16 12.3214 16 7.96429C16 5.82143 15.0714 3.85714 13.5714 2.35714ZM7.96429 14.5357C6.78571 14.5357 5.64286 14.2143 4.60714 13.6071L4.39286 13.4643L1.89286 14.1429L2.57143 11.7143L2.39286 11.4643C1.75 10.3929 1.39286 9.17857 1.39286 7.92857C1.39286 4.32143 4.35714 1.35714 8 1.35714C9.75 1.35714 11.3929 2.03571 12.6429 3.28571C13.8929 4.53571 14.6429 6.17857 14.6429 7.96429C14.6429 11.5714 11.6071 14.5357 7.96429 14.5357ZM11.6071 9.60714C11.3929 9.5 10.4286 9.03572 10.25 8.96429C10.0714 8.89286 9.92857 8.85714 9.78572 9.07143C9.67857 9.25 9.28572 9.71429 9.17857 9.85714C9.03572 9.96429 8.92857 10 8.75 9.89286C7.57143 9.32143 6.82143 8.85714 6.03571 7.53571C5.82143 7.17857 6.25 7.21429 6.60714 6.46429C6.67857 6.32143 6.64286 6.21429 6.60714 6.10714C6.57143 6 6.14286 5.03571 6 4.64286C5.82143 4.25 5.67857 4.28571 5.53571 4.28571C5.42857 4.28571 5.28571 4.28571 5.17857 4.28571C5.03571 4.28571 4.82143 4.32143 4.64286 4.53571C4.46429 4.75 3.96429 5.21429 3.96429 6.17857C3.96429 7.17857 4.64286 8.10714 4.75 8.25C4.85714 8.35714 6.14286 10.3571 8.14286 11.2143C9.39286 11.7857 9.89286 11.8214 10.5357 11.7143C10.8929 11.6786 11.6786 11.25 11.8571 10.7857C12.0357 10.3214 12.0357 9.92857 11.9643 9.85714C11.9286 9.75 11.7857 9.71429 11.6071 9.60714Z" fill="#5C8EE6"/>
</svg>
